HIERARCHY
ROOT Hips
{
	OFFSET 74.204300 -23.375916 94.188103
	CHANNELS 6 Xposition Yposition Zposition Xrotation Yrotation Zrotation
	JOINT spine
	{
		OFFSET 0.000000 -0.448574 7.800583
		CHANNELS 3 Xrotation Yrotation Zrotation
		JOINT spine1
		{
			OFFSET 0.000000 -0.000002 10.136398
			CHANNELS 3 Xrotation Yrotation Zrotation
			JOINT spine2
			{
				OFFSET 0.000000 0.000000 9.712509
				CHANNELS 3 Xrotation Yrotation Zrotation
				JOINT Neck
				{
					OFFSET 0.000000 -1.188875 24.936104
					CHANNELS 3 Xrotation Yrotation Zrotation
					JOINT Head
					{
						OFFSET 0.000000 0.000000 7.533844
						CHANNELS 3 Xrotation Yrotation Zrotation
						End Site
						{
							OFFSET 0.000000 6.014017 18.236099
						}
					}
				}
				JOINT RightShoulder
				{
					OFFSET -4.089653 0.569454 10.488808
					CHANNELS 3 Xrotation Yrotation Zrotation
					JOINT RightArm
					{
						OFFSET 0.000000 -0.000002 13.757004
						CHANNELS 3 Xrotation Yrotation Zrotation
						JOINT RightArmRoll
						{
							OFFSET 0.000000 -0.000002 6.944778
							CHANNELS 3 Xrotation Yrotation Zrotation
							JOINT RightForeArm
							{
								OFFSET 0.000000 -0.000004 20.227707
								CHANNELS 3 Xrotation Yrotation Zrotation
								JOINT RightForeArmRoll
								{
									OFFSET 0.000000 0.000000 7.793121
									CHANNELS 3 Xrotation Yrotation Zrotation
									JOINT RightHand
									{
										OFFSET 0.000000 -0.000004 15.639099
										CHANNELS 3 Xrotation Yrotation Zrotation
										End Site
										{
											OFFSET 0.000000 0.000000 0.100006
										}
									}
								}
							}
						}
					}
				}
				JOINT LeftShoulder
				{
					OFFSET 4.089653 0.569454 10.488808
					CHANNELS 3 Xrotation Yrotation Zrotation
					JOINT LeftArm
					{
						OFFSET 0.000000 -0.000002 13.757004
						CHANNELS 3 Xrotation Yrotation Zrotation
						JOINT LeftArmRoll
						{
							OFFSET 0.000000 -0.000002 6.944778
							CHANNELS 3 Xrotation Yrotation Zrotation
							JOINT LeftForeArm
							{
								OFFSET 0.000000 -0.000004 20.227707
								CHANNELS 3 Xrotation Yrotation Zrotation
								JOINT LeftForeArmRoll
								{
									OFFSET 0.000000 0.000000 7.793121
									CHANNELS 3 Xrotation Yrotation Zrotation
									JOINT LeftHand
									{
										OFFSET 0.000000 -0.000004 15.639099
										CHANNELS 3 Xrotation Yrotation Zrotation
										End Site
										{
											OFFSET 0.000000 0.000000 0.100006
										}
									}
								}
							}
						}
					}
				}
			}
		}
	}
	JOINT RightUpLeg
	{
		OFFSET -6.914162 1.063580 -1.267883
		CHANNELS 3 Xrotation Yrotation Zrotation
		JOINT RightUpLegRoll
		{
			OFFSET 0.000000 -0.000004 18.337799
			CHANNELS 3 Xrotation Yrotation Zrotation
			JOINT RightLeg
			{
				OFFSET 0.000000 0.000004 -22.708504
				CHANNELS 3 Xrotation Yrotation Zrotation
				JOINT RightLegRoll
				{
					OFFSET 0.000000 -0.000004 22.782799
					CHANNELS 3 Xrotation Yrotation Zrotation
					JOINT RightFoot
					{
						OFFSET 0.000000 -0.000002 18.962898
						CHANNELS 3 Xrotation Yrotation Zrotation
						JOINT RightToeBase
						{
							OFFSET 0.000000 -0.000002 15.852005
							CHANNELS 3 Xrotation Yrotation Zrotation
							End Site
							{
								OFFSET 0.006721 0.884892 7.677002
							}
						}
					}
				}
			}
		}
	}
	JOINT LeftUpLeg
	{
		OFFSET 6.914162 1.063580 -1.267883
		CHANNELS 3 Xrotation Yrotation Zrotation
		JOINT LeftUpLegRoll
		{
			OFFSET 0.000000 -0.000004 18.337898
			CHANNELS 3 Xrotation Yrotation Zrotation
			JOINT LeftLeg
			{
				OFFSET 0.000000 -0.000002 22.708405
				CHANNELS 3 Xrotation Yrotation Zrotation
				JOINT LeftLegRoll
				{
					OFFSET 0.000000 -0.000004 22.993408
					CHANNELS 3 Xrotation Yrotation Zrotation
					JOINT LeftFoot
					{
						OFFSET 0.000000 -0.000004 18.752197
						CHANNELS 3 Xrotation Yrotation Zrotation
						JOINT LeftToeBase
						{
							OFFSET 0.000000 -0.000002 15.852005
							CHANNELS 3 Xrotation Yrotation Zrotation
							End Site
							{
								OFFSET -0.030113 0.884892 7.677017
							}
						}
					}
				}
			}
		}
	}
}
MOTION
Frames: 10
Frame Time: 0.041667
86.120903 -19.865620 94.174797 8.290675 5.335800 66.870448 0.145500 1.077274 1.945615 4.264032 2.183226 3.878799 5.908050 2.229575 3.852461 -39.962228 39.793485 14.744724 14.431073 -35.547385 1.572593 -6.536576 -12.157342 -2.121836 454.627008 35.125429 485.645247 0.000000 0.000001 -0.000001 24.363799 17.029630 -4.182323 -0.000006 0.000007 -3.001143 -5.000044 -7.999561 -0.000144 -57.366533 69.439671 64.902090 -62.674362 114.319342 50.100503 0.000001 0.000004 0.000001 22.788453 1.957371 0.742489 0.000001 -0.000009 3.000011 -5.000157 7.999750 -0.000055 10.891613 -167.149687 9.026944 -179.999991 0.000005 -1.308005 163.380720 -0.321006 -0.898819 -0.000004 -0.000002 0.313051 69.879754 6.868075 2.135676 27.414511 -7.263182 2.855676 -16.591429 189.136230 10.613398 -0.000006 -0.000004 -0.986396 -9.215850 6.723181 0.658837 -0.000007 0.000000 0.018021 73.843491 -7.490348 0.000778 25.456916 7.350128 -0.000004 
86.150200 -19.873219 94.178001 8.292343 5.428109 67.002694 0.144889 1.076957 1.945147 4.263270 2.182959 3.877982 5.907277 2.229300 3.851639 -40.010312 39.742873 14.670176 14.457192 -35.524500 1.508952 -6.568842 -12.141768 -2.171755 454.937973 35.388928 484.518867 0.000000 -0.000001 -0.000001 22.581656 17.223207 -3.994564 -0.000004 0.000009 -3.001140 -5.000046 -7.999559 -0.000143 -57.393062 69.444343 64.929909 -62.390404 114.101869 49.748868 0.000001 0.000004 0.000004 22.813088 1.972690 0.743389 0.000001 -0.000010 3.000011 -5.000152 7.999751 -0.000054 10.869980 -167.219628 8.955461 -179.999991 0.000004 -1.305993 163.409762 -0.297099 -0.895507 -0.000001 -0.000003 0.313938 69.898667 6.867609 2.136322 27.313684 -7.272386 2.712159 -16.625080 189.131777 10.625509 -0.000005 -0.000006 -0.983428 -9.169424 6.709478 0.654994 -0.000008 0.000001 0.018594 73.832658 -7.484264 -0.019575 25.456919 7.350125 -0.000003 
86.179306 -19.885023 94.190895 8.291311 5.518991 67.133513 0.144549 1.076486 1.944195 4.262987 2.182281 3.876160 5.906994 2.228594 3.849842 -40.058096 39.690192 14.596883 14.483754 -35.502159 1.448070 -6.596750 -12.125995 -2.214521 455.268745 35.642768 483.472591 -0.000000 0.000000 -0.000004 20.906424 17.405899 -3.808586 -0.000004 0.000007 -3.001141 -5.000049 -7.999561 -0.000145 -57.413935 69.445955 64.952203 -62.101617 113.886772 49.387489 0.000001 0.000005 0.000002 22.830963 1.983761 0.744708 -0.000000 -0.000010 3.000011 -5.000154 7.999750 -0.000055 10.849407 -167.291591 8.884168 -179.999991 0.000005 -1.304996 163.440608 -0.274140 -0.892513 -0.000003 0.000001 0.314698 69.916521 6.867139 2.137031 27.215941 -7.280822 2.572949 -16.658338 189.125425 10.636443 -0.000004 -0.000005 -0.980590 -9.125916 6.696049 0.651379 -0.000007 0.000001 0.019093 73.822979 -7.478501 -0.038499 25.456914 7.350125 -0.000002 
86.201904 -19.897511 94.194695 8.287513 5.608061 67.262774 0.144634 1.075897 1.942727 4.263486 2.181213 3.873282 5.907493 2.227499 3.846977 -40.106645 39.635519 14.525169 14.511478 -35.480750 1.390523 -6.619892 -12.109145 -2.249239 455.616621 35.883591 482.522593 0.000001 -0.000001 -0.000000 19.360356 17.577505 -3.626988 -0.000007 0.000009 -3.001140 -5.000049 -7.999563 -0.000145 -57.428681 69.443804 64.968712 -61.805173 113.675883 49.012983 0.000001 0.000004 0.000003 22.840457 1.989835 0.746544 -0.000002 -0.000011 3.000008 -5.000151 7.999750 -0.000055 10.830106 -167.363595 8.813773 -179.999991 0.000005 -1.304001 163.473734 -0.252132 -0.888816 -0.000001 -0.000001 0.315311 69.933228 6.866692 2.137719 27.122090 -7.288465 2.439188 -16.691143 189.118130 10.645840 -0.000004 -0.000004 -0.977931 -9.085903 6.683031 0.648030 -0.000008 0.000002 0.019505 73.814483 -7.473172 -0.056006 25.456921 7.350126 -0.000002 
86.227402 -19.910315 94.203209 8.280845 5.694968 67.390260 0.145289 1.075186 1.940703 4.265031 2.179772 3.869259 5.909046 2.226000 3.842969 -40.157486 39.578703 14.456054 14.540826 -35.460819 1.336793 -6.637848 -12.090233 -2.275007 455.978375 36.107843 481.688545 0.000001 0.000000 -0.000001 17.965423 17.737532 -3.452210 -0.000006 0.000008 -3.001141 -5.000049 -7.999560 -0.000145 -57.437342 69.436803 64.979592 -61.501899 113.469823 48.626316 0.000001 0.000004 0.000001 22.839859 1.990176 0.748958 0.000001 -0.000010 3.000010 -5.000153 7.999751 -0.000053 10.812521 -167.436678 8.744506 -179.999991 0.000005 -1.302006 163.509456 -0.233003 -0.884973 -0.000001 0.000001 0.315750 69.948459 6.866259 2.138499 27.033020 -7.295306 2.312075 -16.723448 189.108923 10.653996 -0.000005 -0.000005 -0.975468 -9.049961 6.670516 0.644989 -0.000007 0.000002 0.019806 73.807632 -7.468282 -0.071665 25.456919 7.350125 -0.000004 
86.252098 -19.920519 94.202499 8.271233 5.779331 67.515737 0.146662 1.074366 1.938079 4.267917 2.177959 3.864017 5.911930 2.224129 3.837752 -40.211731 39.519864 14.389935 14.572400 -35.442897 1.287431 -6.650212 -12.068470 -2.290945 456.350265 36.312827 480.989790 0.000001 -0.000001 0.000000 16.743982 17.885598 -3.286947 -0.000007 0.000006 -3.001142 -5.000049 -7.999559 -0.000143 -57.439453 69.424351 64.984626 -61.184773 113.271338 48.219578 0.000001 0.000004 0.000004 22.827459 1.984006 0.752048 0.000003 -0.000011 3.000011 -5.000150 7.999751 -0.000053 10.796700 -167.509843 8.676831 -179.999991 0.000004 -1.300995 163.548374 -0.215782 -0.881728 -0.000002 -0.000002 0.315995 69.962215 6.865880 2.139385 26.949558 -7.301325 2.192755 -16.755359 189.097831 10.660794 -0.000005 -0.000005 -0.973227 -9.018687 6.658631 0.642295 -0.000007 0.000001 0.019993 73.802380 -7.463987 -0.085199 25.456921 7.350129 -0.000002 
86.273499 -19.938625 94.203697 8.258969 5.862201 67.640531 0.148450 1.073455 1.934778 4.271524 2.175725 3.857375 5.915545 2.221816 3.831128 -40.268582 39.457262 14.326043 14.607348 -35.424534 1.242309 -6.657630 -12.040963 -2.297555 456.732892 36.504188 480.426490 0.000000 0.000001 0.000001 15.676737 18.020819 -3.133692 -0.000005 0.000009 -3.001141 -5.000050 -7.999560 -0.000145 -57.436570 69.408048 64.985015 -60.864089 113.076398 47.802411 0.000001 0.000003 0.000001 22.805467 1.971786 0.755727 0.000001 -0.000011 3.000011 -5.000154 7.999750 -0.000054 10.782102 -167.584032 8.609953 -179.999991 0.000005 -1.300000 163.589888 -0.200484 -0.879045 -0.000004 -0.000002 0.316060 69.974796 6.865467 2.140432 26.869998 -7.306714 2.078578 -16.786713 189.085810 10.665776 -0.000004 -0.000005 -0.971062 -8.990039 6.647317 0.639806 -0.000008 -0.000000 0.020086 73.798090 -7.459860 -0.097697 25.456919 7.350121 -0.000001 
86.298599 -19.950211 94.215408 8.244461 5.944781 67.765845 0.150252 1.072426 1.930754 4.275061 2.173013 3.849269 5.919094 2.219006 3.823060 -40.325782 39.389790 14.262788 14.646388 -35.403497 1.201106 -6.661051 -12.007091 -2.296282 457.127267 36.688245 479.981490 -0.000000 -0.000001 -0.000000 14.724711 18.142120 -2.993238 -0.000003 0.000008 -3.001141 -5.000046 -7.999560 -0.000147 -57.429173 69.390166 64.980787 -60.543275 112.881737 47.377221 0.000001 0.000005 0.000002 22.777303 1.954717 0.759829 -0.000003 -0.000010 3.000012 -5.000154 7.999750 -0.000055 10.768017 -167.661214 8.542598 -179.999991 0.000005 -1.299001 163.633219 -0.187094 -0.874949 -0.000005 -0.000002 0.315988 69.986462 6.865157 2.141457 26.791924 -7.311668 1.966213 -16.817425 189.070920 10.669525 -0.000005 -0.000005 -0.968837 -8.961897 6.636397 0.637398 -0.000008 0.000000 0.020133 73.793562 -7.455701 -0.110201 25.456918 7.350119 -0.000001 
86.322998 -19.972912 94.222610 8.227718 6.026889 67.891404 0.152086 1.071265 1.926086 4.278586 2.169841 3.839852 5.922617 2.215721 3.813682 -40.382766 39.317871 14.199784 14.688489 -35.380380 1.163372 -6.660532 -11.968441 -2.287571 457.530904 36.863870 479.641674 -0.000001 -0.000001 0.000002 13.880313 18.248691 -2.865585 -0.000003 0.000009 -3.001141 -5.000046 -7.999560 -0.000145 -57.417521 69.370782 64.972236 -60.220268 112.687835 46.942623 0.000001 0.000003 0.000002 22.743374 1.933165 0.764327 0.000001 -0.000010 3.000012 -5.000152 7.999750 -0.000053 10.754287 -167.740376 8.474917 -179.999991 0.000004 -1.299000 163.678325 -0.175629 -0.872428 -0.000006 -0.000002 0.315783 69.997377 6.864817 2.142720 26.715634 -7.316205 1.855899 -16.847592 189.053189 10.672139 -0.000003 -0.000005 -0.966590 -8.934637 6.625821 0.635070 -0.000008 0.000001 0.020116 73.789081 -7.451634 -0.122216 25.456918 7.350122 -0.000003 
86.345810 -19.984921 94.227898 8.208765 6.108332 68.016854 0.153963 1.069977 1.920824 4.282116 2.166222 3.829239 5.926152 2.211967 3.803106 -40.439153 39.242261 14.137295 14.732619 -35.355607 1.128628 -6.656111 -11.926906 -2.271893 457.941262 37.030578 479.394804 0.000001 -0.000003 -0.000000 13.135728 18.339840 -2.750546 -0.000006 0.000010 -3.001139 -5.000048 -7.999559 -0.000149 -57.400719 69.349656 64.958439 -59.892672 112.495026 46.496899 0.000001 0.000004 0.000002 22.704088 1.907498 0.769176 -0.000001 -0.000011 3.000011 -5.000153 7.999749 -0.000053 10.741224 -167.821532 8.406942 -179.999991 0.000006 -1.298005 163.725030 -0.165113 -0.869201 -0.000004 0.000000 0.315462 70.007451 6.864526 2.143942 26.641141 -7.320321 1.747857 -16.877204 189.034542 10.673333 -0.000004 -0.000004 -0.964358 -8.908644 6.615518 0.632848 -0.000008 0.000001 0.020052 73.784949 -7.447599 -0.133815 25.456919 7.350122 -0.000002 
